<svg xmlns="http://www.w3.org/2000/svg" viewBox="0 0 512 512" fill="none"><title>Pär</title><defs><linearGradient id="silver" x1="0" y1="0" x2="512" y2="512" gradientUnits="userSpaceOnUse" ><stop offset="0%" stopColor="#8e9aa8" /><stop offset="25%" stopColor="#cbd5e1" /><stop offset="50%" stopColor="#f8fafc" /><stop offset="75%" stopColor="#cbd5e1" /><stop offset="100%" stopColor="#8e9aa8" /></linearGradient></defs><g transform="translate(0,512) scale(0.1,-0.1)" fill="url(#silver)" stroke="none" ><path d="M2560 4575 c-8 -2 -49 -9 -90 -15 -361 -58 -704 -304 -928 -666 -160 -258 -256 -552 -303 -934 -9 -68 -13 -504 -16 -1512 l-4 -1417 31 -16 c24 -12 31 -13 35 -3 3 7 6 661 8 1453 4 1576 1 1505 63 1785 56 251 170 515 302 699 79 111 218 256 316 328 142 105 327 186 501 218 125 24 358 16 465 -14 221 -64 379 -197 481 -406 114 -235 139 -545 69 -881 -90 -434 -371 -754 -747 -850 -85 -21 -117 -24 -288 -24 -226 0 -262 -8 -324 -75 -59 -64 -72 -119 -72 -303 0 -84 3 -157 6 -163 8 -12 42 -12 51 2 3 6 7 79 9 162 2 164 11 209 51 257 36 42 49 38 49 -12 0 -24 2 -192 3 -374 2 -296 4 -333 18 -338 43 -16 44 -3 44 401 l0 384 148 -7 c174 -8 285 8 422 59 140 53 233 112 343 216 165 159 276 349 336 579 l27 102 26 -52 c29 -61 127 -199 242 -343 43 -55 88 -113 98 -130 47 -77 2 -137 -135 -179 -103 -32 -152 -68 -168 -129 -15 -57 3 -114 58 -179 l45 -52 -37 -33 c-35 -30 -120 -64 -232 -93 -31 -8 -43 -16 -43 -29 0 -27 18 -37 77 -45 64 -8 131 -31 155 -53 33 -29 22 -59 -35 -102 -101 -74 -118 -132 -87 -291 11 -58 20 -114 20 -125 0 -78 -66 -167 -154 -209 -129 -61 -306 -60 -756 3 -393 55 -358 45 -385 111 -58 142 -235 401 -354 520 -169 167 -321 196 -432 81 -71 -74 -87 -166 -48 -285 69 -209 328 -360 712 -417 60 -8 91 -17 96 -28 14 -26 31 -144 31 -210 0 -53 -5 -72 -34 -124 -87 -156 -128 -363 -124 -622 3 -157 3 -160 25 -163 16 -2 26 4 33 20 12 28 116 536 137 668 8 52 20 108 26 124 16 43 103 123 171 156 132 64 247 76 571 56 159 -10 238 -1 341 40 74 30 147 90 174 144 39 76 42 121 20 257 -26 159 -22 175 65 244 70 54 75 63 75 119 0 45 -41 100 -89 120 l-30 12 57 29 c124 62 146 122 76 206 -51 60 -64 85 -64 118 0 41 39 71 132 99 98 30 164 73 184 121 32 78 13 124 -122 295 -257 325 -302 421 -291 611 29 486 -173 887 -521 1033 -108 46 -216 67 -362 71 -74 2 -142 2 -150 0z m-831 -2719 c97 -50 202 -166 341 -376 34 -52 80 -130 101 -173 l40 -78 -38 6 c-316 52 -472 114 -594 236 -78 77 -112 150 -111 240 0 75 38 142 92 162 40 15 122 6 169 -17z m739 -723 c72 -9 132 -21 132 -25 0 -4 -8 -8 -19 -8 -29 0 -171 -75 -217 -114 l-41 -35 -7 84 c-3 46 -9 90 -12 99 -8 21 0 21 164 -1z m-269 -595 c-21 -102 -38 -150 -25 -73 11 68 39 185 43 181 3 -2 -6 -51 -18 -108z" /><path d="M2885 3434 c-89 -46 -118 -131 -75 -218 31 -63 63 -81 142 -81 63 0 69 2 103 35 84 81 64 214 -38 260 -51 24 -92 25 -132 4z" /></g></svg> 